<svg xmlns="http://www.w3.org/2000/svg" xmlns:xlink="http://www.w3.org/1999/xlink" width="43" height="43" viewBox="0 0 43 43">
  <defs>
    <filter id="Ellipse_52" x="0" y="0" width="43" height="43" filterUnits="userSpaceOnUse">
      <feOffset dy="3" input="SourceAlpha"/>
      <feGaussianBlur stdDeviation="2.5" result="blur"/>
      <feFlood flood-color="#00513a" flood-opacity="0.161"/>
      <feComposite operator="in" in2="blur"/>
      <feComposite in="SourceGraphic"/>
    </filter>
  </defs>
  <g id="edit_photo" data-name="edit photo" transform="translate(-207.5 -160.5)">
    <g transform="matrix(1, 0, 0, 1, 207.5, 160.5)" filter="url(#Ellipse_52)">
      <circle id="Ellipse_52-2" data-name="Ellipse 52" cx="14" cy="14" r="14" transform="translate(7.5 4.5)" fill="#f5ffe6"/>
    </g>
    <g id="photo-camera" transform="translate(222 136.461)">
      <g id="Group_3303" data-name="Group 3303" transform="translate(0 36.54)">
        <path id="Path_4014" data-name="Path 4014" d="M13.305,38.927A1.779,1.779,0,0,0,12,38.386H10.385l-.368-.981a1.339,1.339,0,0,0-.5-.609,1.284,1.284,0,0,0-.746-.256H5.077a1.284,1.284,0,0,0-.746.256,1.34,1.34,0,0,0-.5.609l-.368.981H1.846a1.779,1.779,0,0,0-1.305.541A1.779,1.779,0,0,0,0,40.232v6.461A1.778,1.778,0,0,0,.541,48a1.779,1.779,0,0,0,1.305.541H12a1.847,1.847,0,0,0,1.846-1.846V40.232A1.779,1.779,0,0,0,13.305,38.927Zm-4.1,6.819a3.111,3.111,0,0,1-2.282.948,3.111,3.111,0,0,1-2.282-.948,3.221,3.221,0,0,1,0-4.565,3.111,3.111,0,0,1,2.282-.948,3.111,3.111,0,0,1,2.282.948,3.221,3.221,0,0,1,0,4.565Z" transform="translate(0 -36.54)" fill="none" stroke="#00513a" stroke-width="1"/>
      </g>
    </g>
  </g>
</svg>
